<mxfile host="www.draw.io" modified="2019-10-15T04:04:02.322Z" agent="Mozilla/5.0 (Windows NT 10.0; Win64; x64; rv:69.0) Gecko/20100101 Firefox/69.0" etag="ECtzB1rMtZFnv0ruRjIQ" version="12.1.1" type="github" pages="1">
  <diagram id="pqqLZWclSR7XDBoMPrpL" name="第 1 页">
    <mxGraphModel dx="854" dy="449" grid="1" gridSize="10" guides="1" tooltips="1" connect="1" arrows="1" fold="1" page="1" pageScale="1" pageWidth="827" pageHeight="1169" math="0" shadow="0">
      <root>
        <mxCell id="0"/>
        <mxCell id="1" parent="0"/>
        <mxCell id="5DbwA5_WQ67M7GmyVpjb-3" value="" style="edgeStyle=orthogonalEdgeStyle;rounded=0;orthogonalLoop=1;jettySize=auto;html=1;" parent="1" edge="1">
          <mxGeometry relative="1" as="geometry">
            <mxPoint x="100" y="60" as="sourcePoint"/>
            <mxPoint x="180" y="60" as="targetPoint"/>
          </mxGeometry>
        </mxCell>
        <mxCell id="5DbwA5_WQ67M7GmyVpjb-4" value="" style="shape=process;whiteSpace=wrap;html=1;backgroundOutline=1;" parent="1" vertex="1">
          <mxGeometry x="100" y="180" width="120" height="60" as="geometry"/>
        </mxCell>
        <mxCell id="Zq_ZZiogr-Z1pm57jFlj-1" value="" style="ellipse;whiteSpace=wrap;html=1;aspect=fixed;" vertex="1" parent="1">
          <mxGeometry x="260" y="260" width="80" height="80" as="geometry"/>
        </mxCell>
      </root>
    </mxGraphModel>
  </diagram>
</mxfile>
